/* XPM */
static char * bottom_left_active_xpm[] = {
"4 4 4 1",
" 	c #525252",
".	c #3D3D3D",
"+	c #353535",
"@	c #0E0E0E",
" ...",
" ...",
" ...",
"+@@@"};
