/* XPM */
static char * bottom_right_inactive_xpm[] = {
"4 4 4 1",
" 	c #3D3D3D",
".	c #525252",
"+	c #0E0E0E",
"@	c #353535",
"   .",
"   .",
"   .",
"+++@"};
